<svg width="600" height="400" viewBox="0 0 600 400" fill="none" xmlns="http://www.w3.org/2000/svg">
  <!-- Background -->
  <rect width="600" height="400" rx="12" fill="#F6F9FC"/>
  
  <!-- Dashboard Frame -->
  <rect x="50" y="50" width="500" height="300" rx="8" fill="white" stroke="#E2E8F0" stroke-width="2"/>
  
  <!-- Header -->
  <rect x="50" y="50" width="500" height="60" rx="8" fill="#4CAF50" opacity="0.1"/>
  <circle cx="90" cy="80" r="15" fill="#4CAF50"/>
  <rect x="120" y="70" width="120" height="20" rx="4" fill="#4CAF50" opacity="0.6"/>
  <rect x="400" y="70" width="100" height="20" rx="4" fill="#4CAF50" opacity="0.3"/>
  
  <!-- Sidebar -->
  <rect x="50" y="110" width="100" height="240" fill="#F8FAFC"/>
  <rect x="70" y="130" width="60" height="10" rx="2" fill="#4CAF50" opacity="0.6"/>
  <rect x="70" y="160" width="60" height="10" rx="2" fill="#718096" opacity="0.3"/>
  <rect x="70" y="190" width="60" height="10" rx="2" fill="#718096" opacity="0.3"/>
  <rect x="70" y="220" width="60" height="10" rx="2" fill="#718096" opacity="0.3"/>
  <rect x="70" y="250" width="60" height="10" rx="2" fill="#718096" opacity="0.3"/>
  <rect x="70" y="280" width="60" height="10" rx="2" fill="#718096" opacity="0.3"/>
  
  <!-- Main Content -->
  <rect x="170" y="130" width="180" height="100" rx="4" fill="#E8F5E9"/>
  <circle cx="200" cy="180" r="30" fill="#81C784"/>
  <path d="M190 180L198 188L210 172" stroke="white" stroke-width="3" stroke-linecap="round" stroke-linejoin="round"/>
  <rect x="240" y="160" width="80" height="12" rx="2" fill="#4CAF50" opacity="0.6"/>
  <rect x="240" y="180" width="60" height="8" rx="2" fill="#718096" opacity="0.3"/>
  
  <!-- Charts -->
  <rect x="170" y="250" width="120" height="80" rx="4" fill="#F8FAFC"/>
  <rect x="180" y="270" width="10" height="40" rx="1" fill="#4CAF50" opacity="0.3"/>
  <rect x="200" y="260" width="10" height="50" rx="1" fill="#4CAF50" opacity="0.5"/>
  <rect x="220" y="250" width="10" height="60" rx="1" fill="#4CAF50" opacity="0.7"/>
  <rect x="240" y="280" width="10" height="30" rx="1" fill="#4CAF50" opacity="0.4"/>
  <rect x="260" y="265" width="10" height="45" rx="1" fill="#4CAF50" opacity="0.6"/>
  
  <!-- Data Table -->
  <rect x="310" y="130" width="220" height="200" rx="4" fill="#F8FAFC"/>
  <rect x="320" y="150" width="200" height="1" fill="#E2E8F0"/>
  <rect x="320" y="180" width="200" height="1" fill="#E2E8F0"/>
  <rect x="320" y="210" width="200" height="1" fill="#E2E8F0"/>
  <rect x="320" y="240" width="200" height="1" fill="#E2E8F0"/>
  <rect x="320" y="270" width="200" height="1" fill="#E2E8F0"/>
  <rect x="320" y="300" width="200" height="1" fill="#E2E8F0"/>
  
  <rect x="330" y="160" width="60" height="10" rx="2" fill="#718096" opacity="0.3"/>
  <rect x="330" y="190" width="60" height="10" rx="2" fill="#718096" opacity="0.3"/>
  <rect x="330" y="220" width="60" height="10" rx="2" fill="#718096" opacity="0.3"/>
  <rect x="330" y="250" width="60" height="10" rx="2" fill="#718096" opacity="0.3"/>
  <rect x="330" y="280" width="60" height="10" rx="2" fill="#718096" opacity="0.3"/>
  
  <rect x="430" y="160" width="40" height="10" rx="2" fill="#4CAF50" opacity="0.3"/>
  <rect x="430" y="190" width="40" height="10" rx="2" fill="#4CAF50" opacity="0.5"/>
  <rect x="430" y="220" width="40" height="10" rx="2" fill="#4CAF50" opacity="0.4"/>
  <rect x="430" y="250" width="40" height="10" rx="2" fill="#4CAF50" opacity="0.6"/>
  <rect x="430" y="280" width="40" height="10" rx="2" fill="#4CAF50" opacity="0.3"/>
  
  <!-- Decorative Elements -->
  <circle cx="520" cy="80" r="8" fill="#4CAF50" opacity="0.2"/>
  <circle cx="540" cy="80" r="8" fill="#4CAF50" opacity="0.2"/>
  
  <!-- Carbon Registry Logo -->
  <circle cx="90" cy="80" r="15" fill="#4CAF50"/>
  <path d="M85 80L90 85L95 75" stroke="white" stroke-width="2" stroke-linecap="round" stroke-linejoin="round"/>
</svg>
